<?xml version="1.0" encoding="utf-8"?>
<!-- Generator: Adobe Illustrator 16.0.3, SVG Export Plug-In . SVG Version: 6.00 Build 0)  -->
<!DOCTYPE svg PUBLIC "-//W3C//DTD SVG 1.1//EN" "http://www.w3.org/Graphics/SVG/1.1/DTD/svg11.dtd">
<svg version="1.1" id="Capa_1" xmlns="http://www.w3.org/2000/svg" xmlns:xlink="http://www.w3.org/1999/xlink" x="0px" y="0px"
	 width="515.905px" height="102.047px" viewBox="0 0 515.905 102.047" enable-background="new 0 0 515.905 102.047"
	 xml:space="preserve">
<g>
	<circle display="none" fill="#1A1A1A" cx="847.25" cy="60.839" r="55.308"/>
	
		<text transform="matrix(1.0487 0 0 1 894.791 78.9316)" display="none" fill="#FFFFFF" stroke="#1A1A1A" stroke-width="20" stroke-miterlimit="9" font-family="'UniSansBold'" font-size="61.4019" letter-spacing="-2.861">RANK</text>
	
		<text transform="matrix(1.0487 0 0 1 594.3623 79.5635)" display="none" fill="#FFFFFF" stroke="#1A1A1A" stroke-width="20" stroke-miterlimit="9" font-family="'UniSansBold'" font-size="61.4019" letter-spacing="-4.768">BEETLE</text>
	<g>
		<g>
			<path fill="#FFFFFF" d="M340.028,74.432l-9.353-14l-2.041,14h-16.606l7.4-50.473h20.989c2.57,0,4.979,0.299,7.16,0.889
				c2.4,0.651,4.471,1.728,6.154,3.2c1.771,1.548,3.05,3.535,3.802,5.905c0.487,1.445,0.743,3.143,0.743,4.989
				c0,0.896-0.05,1.825-0.148,2.76l-0.02,0.153c-0.714,4.767-2.423,8.494-5.077,11.077c-1.465,1.427-3.18,2.576-5.126,3.439
				l12.251,18.061H340.028z M337.585,43.301c1.423,0,2.527-0.242,3.284-0.719c0.179-0.113,0.651-0.411,0.856-1.725
				c0.008-0.074,0.022-0.232,0.022-0.381c0-0.017,0-0.034-0.001-0.049c-0.136-0.063-0.349-0.14-0.667-0.204
				c-0.585-0.117-1.265-0.177-2.014-0.177h-5.404l-0.47,3.254H337.585z"/>
			<path d="M340.418,27.459c2.275,0,4.356,0.256,6.246,0.768c1.889,0.512,3.478,1.331,4.765,2.456
				c1.288,1.126,2.211,2.569,2.77,4.329c0.386,1.146,0.579,2.456,0.579,3.93c0,0.778-0.043,1.576-0.129,2.395
				c-0.602,4.013-1.954,7.041-4.057,9.087c-2.104,2.048-4.852,3.378-8.242,3.991l11.204,16.518h-11.654l-10.624-15.903h-3.349
				l-2.318,15.903h-9.529l6.374-43.473H340.418 M329.15,46.801h8.435c2.103,0,3.82-0.419,5.151-1.259
				c1.33-0.838,2.146-2.22,2.447-4.145c0.042-0.327,0.064-0.634,0.064-0.921c0-0.491-0.064-0.941-0.193-1.351
				c-0.258-0.654-0.666-1.167-1.224-1.535c-0.559-0.368-1.245-0.634-2.061-0.798c-0.815-0.163-1.718-0.246-2.704-0.246h-8.436
				L329.15,46.801 M340.418,20.459h-17.965h-6.049l-0.877,5.984l-6.374,43.473l-1.176,8.016h8.102h9.529h6.054l0.873-5.99
				l0.29-1.991l3.254,4.87l2.078,3.111h3.742h11.654h13.207l-7.414-10.93l-6.416-9.458c0.904-0.633,1.753-1.335,2.544-2.105
				c3.214-3.128,5.266-7.523,6.097-13.065l0.022-0.153l0.017-0.153c0.11-1.057,0.167-2.108,0.167-3.126
				c0-2.203-0.312-4.255-0.925-6.103c-0.951-2.964-2.571-5.462-4.815-7.425c-2.088-1.826-4.625-3.152-7.541-3.943
				C346.014,20.799,343.297,20.459,340.418,20.459L340.418,20.459z"/>
		</g>
		<g>
			<polygon fill="#FFFFFF" points="377.438,74.432 374.862,64.484 366.103,64.484 360.887,74.432 342.926,74.432 368.867,23.959 
				382.87,23.959 394.458,74.432 			"/>
			<path d="M380.083,27.459l9.98,43.473h-9.916l-2.576-9.947h-13.586l-5.216,9.947H348.66l22.344-43.473H380.083 M367.591,52.695
				h8.757l-1.48-9.456l-0.387-6.202h-0.708l-2.189,6.263L367.591,52.695 M385.658,20.459h-5.575h-9.079h-4.272l-1.953,3.8
				l-22.344,43.472l-5.243,10.2h11.469h10.109h4.233l1.966-3.749l3.25-6.198h3.935l1.218,4.702l1.358,5.245h5.418h9.916h8.789
				l-1.967-8.566l-9.98-43.473L385.658,20.459L385.658,20.459z"/>
		</g>
		<g>
			<polygon fill="#FFFFFF" points="413.193,74.432 404.959,56.62 402.36,74.432 385.754,74.432 393.154,23.959 407.755,23.959 
				416.6,43.111 419.43,23.959 435.967,23.959 428.565,74.432 			"/>
			<path d="M431.916,27.459l-6.375,43.473h-10.109l-10.56-22.841l-1.932-5.896h-0.258l-0.258,7.553l-3.091,21.184h-9.529
				l6.374-43.473h9.337l10.946,23.701l2.254,7.736h0.193l0.257-9.21l3.284-22.228H431.916 M440.018,20.459h-8.102h-9.466h-6.042
				l-0.883,5.977l-0.672,4.547l-2.982-6.459l-1.878-4.065h-4.478h-9.337h-6.049l-0.877,5.984l-6.374,43.473l-1.176,8.016h8.102
				h9.529h6.053l0.874-5.989l0.462-3.167l2.355,5.094l1.878,4.063h4.476h10.109h6.049l0.877-5.984l6.375-43.473L440.018,20.459
				L440.018,20.459z"/>
		</g>
		<g>
			<polygon fill="#FFFFFF" points="451.654,74.432 442.277,61.72 440.413,74.432 423.873,74.432 431.273,23.959 447.811,23.959 
				446.059,35.983 458.582,23.959 480.367,23.959 453.45,49.191 472.074,74.432 			"/>
			<path d="M471.516,27.459l-22.729,21.307l16.355,22.166h-11.72L441.51,54.783l-1.996,1.657l-2.125,14.491h-9.465l6.374-43.473
				h9.466l-2.64,18.114l18.866-18.114H471.516 M489.219,20.459h-17.703H459.99h-2.816l-2.031,1.951l-4.149,3.984l0.864-5.935h-8.094
				h-9.466h-6.049l-0.877,5.984l-6.374,43.473l-1.176,8.016h8.102h9.465h6.049l0.877-5.984l0.192-1.31l3.282,4.449l2.098,2.845
				h3.535h11.72h13.864l-8.231-11.156l-12.661-17.159l18.189-17.051L489.219,20.459L489.219,20.459z"/>
		</g>
	</g>
	<g>
		<g>
			<polygon fill="#FFFFFF" points="198.374,76.229 205.768,25.699 243.75,25.699 241.438,41.539 220.047,41.539 219.816,43.079 
				239.445,43.079 237.125,58.849 217.498,58.849 217.269,60.449 238.664,60.449 236.346,76.229 			"/>
			<path d="M239.702,29.199l-1.29,8.84h-21.38l-1.279,8.54h19.64l-1.29,8.77h-19.64l-1.23,8.601h21.38l-1.29,8.78h-30.899
				l6.37-43.53H239.702 M247.798,22.199h-8.096h-30.909h-6.05l-0.876,5.986l-6.37,43.53l-1.173,8.014h8.099h30.899h6.047
				l0.879-5.982l1.29-8.78l1.178-8.018h-1.773l0.085-0.582l1.29-8.77l0.376-2.559h1.771l0.874-5.989l1.29-8.84L247.798,22.199
				L247.798,22.199z"/>
		</g>
		<g>
			<polygon fill="#FFFFFF" points="68.232,76.229 75.638,25.699 113.62,25.699 111.309,41.539 89.914,41.539 89.681,43.079 
				109.301,43.079 106.999,58.849 87.367,58.849 87.139,60.449 108.534,60.449 106.216,76.229 			"/>
			<path d="M109.572,29.199l-1.29,8.84h-21.38l-1.29,8.54h19.641l-1.28,8.77H84.332l-1.229,8.601h21.38l-1.29,8.78h-30.91
				l6.38-43.53H109.572 M117.668,22.199h-8.096h-30.91h-6.049l-0.877,5.985l-6.38,43.531l-1.175,8.015h8.101h30.91h6.047
				l0.879-5.982l1.29-8.78l1.178-8.018h-1.773l0.086-0.589l1.28-8.77l0.372-2.551h1.783l0.874-5.989l1.29-8.84L117.668,22.199
				L117.668,22.199z"/>
		</g>
		<g>
			<path fill="#FFFFFF" d="M31.603,76.229l7.395-50.53h21.055c2.359,0,4.556,0.328,6.528,0.974c2.128,0.684,3.988,1.764,5.509,3.206
				c1.568,1.513,2.704,3.347,3.398,5.474c0.453,1.367,0.684,2.854,0.684,4.407c0,0.912-0.078,1.823-0.238,2.785
				c-0.121,0.822-0.373,1.75-0.741,2.695c-0.385,0.975-0.861,1.896-1.421,2.754c-0.338,0.526-0.721,1.036-1.154,1.534
				c0.085,0.101,0.167,0.203,0.248,0.306c1.003,1.292,1.725,2.708,2.146,4.212c0.307,1.143,0.45,2.283,0.45,3.524v0.853
				l-0.008,0.121c-0.094,1.344-0.328,2.709-0.695,4.057c-0.552,1.885-1.359,3.62-2.418,5.221c-1.099,1.662-2.553,3.147-4.32,4.414
				c-1.741,1.227-3.783,2.203-6.093,2.918c-2.325,0.716-4.989,1.077-7.926,1.077H31.603z M54.963,60.449
				c0.954,0,1.734-0.139,2.318-0.411c0.605-0.274,1.021-0.563,1.273-0.874c0.274-0.328,0.333-0.548,0.357-0.708l0.022-0.129
				l-0.023-0.042l-0.033-0.091c0,0-0.105-0.155-0.501-0.366c-0.186-0.099-0.751-0.329-1.994-0.329h-5.524l-0.421,2.95H54.963z
				 M57.543,42.769c1.097,0,1.499-0.342,1.63-0.454c0.279-0.24,0.493-0.485,0.6-0.685c-0.194-0.044-0.515-0.09-1.011-0.09h-5.541
				l-0.182,1.229H57.543z"/>
			<path d="M60.053,29.199c1.97,0,3.79,0.26,5.439,0.8c1.65,0.53,3.051,1.34,4.19,2.42c1.13,1.09,1.96,2.43,2.479,4.02
				c0.341,1.03,0.511,2.13,0.511,3.32c0,0.7-0.061,1.43-0.19,2.21c-0.09,0.61-0.27,1.28-0.55,2c-0.28,0.71-0.64,1.42-1.09,2.11
				c-0.45,0.7-1,1.35-1.65,1.971c-0.64,0.609-1.37,1.119-2.18,1.529c1.33,0.66,2.359,1.46,3.09,2.4
				c0.729,0.939,1.24,1.939,1.54,3.01c0.22,0.82,0.32,1.67,0.32,2.58v0.73c-0.08,1.149-0.28,2.279-0.58,3.379
				c-0.431,1.471-1.08,2.881-1.96,4.211s-2.03,2.489-3.44,3.5c-1.42,1-3.12,1.81-5.09,2.42c-1.98,0.609-4.271,0.92-6.89,0.92H35.652
				l6.37-43.53H60.053 M48.982,46.269h8.561c1.59,0,2.89-0.43,3.899-1.29c1-0.86,1.62-1.8,1.83-2.83c0.04-0.24,0.07-0.47,0.07-0.67
				c0-0.78-0.261-1.5-0.78-2.15c-0.73-0.86-1.99-1.29-3.8-1.29h-8.561L48.982,46.269 M46.402,63.949h8.561
				c1.46,0,2.729-0.24,3.8-0.74c1.08-0.489,1.91-1.101,2.51-1.84c0.61-0.729,0.97-1.53,1.1-2.39c0.04-0.211,0.061-0.41,0.061-0.621
				c0-0.649-0.15-1.239-0.45-1.779c-0.38-0.73-1.04-1.35-1.96-1.84s-2.14-0.74-3.64-0.74h-8.561L46.402,63.949 M60.053,22.199
				h-18.03h-6.05l-0.876,5.986l-6.37,43.53l-1.173,8.014h8.099h18.351c3.286,0,6.297-0.414,8.948-1.229
				c2.673-0.828,5.044-1.967,7.062-3.388l0.023-0.017l0.024-0.017c2.115-1.517,3.865-3.309,5.2-5.327
				c1.252-1.894,2.208-3.947,2.84-6.106l0.019-0.063l0.017-0.063c0.428-1.569,0.7-3.162,0.81-4.734l0.017-0.243V58.3v-0.73
				c0-1.552-0.183-2.987-0.559-4.392l-0.01-0.038l-0.011-0.038c-0.343-1.224-0.836-2.398-1.476-3.514
				c0.59-0.941,1.113-1.976,1.536-3.048c0.465-1.196,0.782-2.356,0.953-3.48c0.186-1.132,0.276-2.212,0.276-3.3
				c0-1.927-0.291-3.784-0.865-5.519c-0.866-2.651-2.304-4.967-4.265-6.859l-0.023-0.022l-0.023-0.021
				c-1.904-1.805-4.214-3.152-6.864-4.004C65.345,22.585,62.782,22.199,60.053,22.199L60.053,22.199z"/>
		</g>
		<g>
			<polygon fill="#FFFFFF" points="167.401,76.229 172.452,41.789 166.49,41.789 161.469,76.229 144.865,76.229 149.898,41.7 
				142.589,41.537 132.465,41.496 123.399,41.528 123.167,43.079 142.795,43.079 140.475,58.849 120.851,58.849 120.624,60.449 
				142.01,60.449 139.709,76.229 101.723,76.229 109.118,25.699 179.906,25.704 191.345,25.79 186.259,60.14 205.934,60.14 
				203.651,76.229 			"/>
			<path d="M112.143,29.199l59.107,0.005h8.656l7.387,0.055l-5.091,34.38h19.7l-1.29,9.09h-29.16l5.051-34.44h-13.04l-5.021,34.44
				h-9.53l5.021-34.44l-11.266-0.251l-10.188-0.042l-12.097,0.043l-1.28,8.54h19.64l-1.29,8.77h-19.64l-1.22,8.601h21.37l-1.28,8.78
				h-30.91L112.143,29.199 M106.092,22.199l-0.876,5.987l-6.37,43.53l-1.173,8.014h8.099h30.91h6.053h6.176h9.53h6.054h6.956h29.16
				h6.077l0.854-6.017l1.29-9.09l1.133-7.983h-8.063h-11.587l3.902-26.355l1.18-7.965l-8.052-0.061l-7.387-0.055h-0.026h-0.026
				h-8.656l-59.107-0.005L106.092,22.199L106.092,22.199z"/>
		</g>
	</g>
	<g>
		<g>
			<path fill="#FFFFFF" d="M217.032,38.039l-1.279,8.54h19.64l-1.29,8.77h-19.64l-1.23,8.601h21.38l-1.29,8.78h-30.899l6.37-43.53
				h30.909l-1.29,8.84H217.032z"/>
		</g>
		<g>
			<path fill="#FFFFFF" d="M84.332,55.349l-1.229,8.601h21.38l-1.29,8.78h-30.91l6.38-43.53h30.91l-1.29,8.84h-21.38l-1.29,8.54
				h19.641l-1.28,8.77H84.332z"/>
		</g>
		<g>
			<path fill="#FFFFFF" d="M70.103,51.979c-0.73-0.94-1.76-1.74-3.09-2.4c0.81-0.41,1.54-0.92,2.18-1.529
				c0.65-0.621,1.2-1.271,1.65-1.971c0.45-0.689,0.81-1.4,1.09-2.11c0.28-0.72,0.46-1.39,0.55-2c0.13-0.78,0.19-1.51,0.19-2.21
				c0-1.19-0.17-2.29-0.511-3.32c-0.52-1.59-1.35-2.93-2.479-4.02c-1.14-1.08-2.54-1.89-4.19-2.42c-1.649-0.54-3.47-0.8-5.439-0.8
				h-18.03l-6.37,43.53h18.351c2.619,0,4.909-0.311,6.89-0.92c1.97-0.61,3.67-1.42,5.09-2.42c1.41-1.011,2.561-2.17,3.44-3.5
				s1.529-2.74,1.96-4.211c0.3-1.1,0.5-2.229,0.58-3.379v-0.73c0-0.91-0.101-1.76-0.32-2.58
				C71.343,53.919,70.832,52.919,70.103,51.979z M62.372,58.979c-0.13,0.859-0.489,1.66-1.1,2.39c-0.6,0.739-1.43,1.351-2.51,1.84
				c-1.07,0.5-2.34,0.74-3.8,0.74h-8.561l1.42-9.95h8.561c1.5,0,2.72,0.25,3.64,0.74s1.58,1.109,1.96,1.84
				c0.3,0.54,0.45,1.13,0.45,1.779C62.433,58.569,62.412,58.769,62.372,58.979z M63.272,42.149c-0.21,1.03-0.83,1.97-1.83,2.83
				c-1.01,0.86-2.31,1.29-3.899,1.29h-8.561l1.22-8.229h8.561c1.81,0,3.069,0.43,3.8,1.29c0.52,0.65,0.78,1.37,0.78,2.15
				C63.343,41.679,63.313,41.909,63.272,42.149z"/>
		</g>
		<g>
			<path fill="#FFFFFF" d="M182.202,63.64h19.7l-1.29,9.09h-29.16l5.051-34.44h-13.04l-5.021,34.44h-9.53l5.021-34.44l-11.266-0.251
				l-10.188-0.042l-12.097,0.043l-1.28,8.54h19.64l-1.29,8.77h-19.64l-1.22,8.601h21.37l-1.28,8.78h-30.91l6.37-43.53l59.107,0.005
				h8.656l7.387,0.055L182.202,63.64z"/>
		</g>
	</g>
	<g>
		<path fill="#FFFFFF" d="M276.951,89.557c-20.816,0-37.752-16.936-37.752-37.753c0-20.816,16.936-37.75,37.752-37.75
			s37.751,16.935,37.751,37.75C314.702,72.621,297.768,89.557,276.951,89.557z"/>
		<path d="M276.951,17.053c19.193,0,34.751,15.559,34.751,34.75c0,19.194-15.558,34.753-34.751,34.753s-34.752-15.559-34.752-34.753
			C242.199,32.612,257.758,17.053,276.951,17.053 M276.951,11.053c-22.471,0-40.752,18.281-40.752,40.75
			c0,22.472,18.281,40.753,40.752,40.753c22.47,0,40.751-18.281,40.751-40.753C317.702,29.334,299.421,11.053,276.951,11.053
			L276.951,11.053z"/>
	</g>
	<g>
		<circle fill="#FFFFFF" cx="276.951" cy="51.804" r="34.751"/>
	</g>
	<g>
		<polygon points="282.297,82.396 277.957,80.684 275.311,80.938 276.733,82.999 271.075,82.21 268.15,79.428 267.024,80.771 
			260.415,73.117 256.583,68.805 253.835,62.327 252.706,54.39 250.536,56.544 250.186,54.368 253.183,49.058 254.176,45.384 
			256.4,40.693 249.463,40.494 259.674,34.102 269.332,31.805 263.225,27.071 272.518,27.365 272.73,24.103 270.639,20.864 
			273.697,20.864 277.122,24.314 281.827,30.125 291.49,37.572 293.186,37.019 298.215,44.074 296.677,59.787 293.564,68.104 
			287.934,71.148 279.262,69.087 271.469,64.152 268.431,63.793 265.55,60.052 266.441,56.266 271.271,55.68 273.942,57.649 
			274.604,60.979 280.351,63.702 288.491,64.526 290.692,59.977 292.488,54.305 292.328,49.251 289.932,46.083 285.019,39.423 
			284.358,38.687 280.656,37.629 277.115,34.883 274.391,36.041 272.714,35.768 267.879,36.19 263.862,37.602 259.968,42.127 
			257.519,48.286 257.78,51.978 256.613,53.013 257.172,58.142 258.974,64.714 264.056,69.883 273.626,71.024 272.222,72.477 
			276.163,73.745 275.225,74.983 278.349,76.105 282.792,75.752 284.629,77.047 289.957,76.306 295.745,72.687 298.729,68.099 
			299.204,63.927 297.626,60.545 301.628,61.676 303.652,64.714 304.185,71.221 297.385,79.147 292.532,80.291 288.576,83.158 
			283.313,84.305 		"/>
		<path fill="#FFFFFF" d="M273.489,21.364l3.278,3.302l4.708,5.819l9.919,7.644l1.597-0.521l4.708,6.603l-1.514,15.461l-3.023,8.08
			l-5.299,2.865l-8.404-1.998l-7.818-4.951l-2.942-0.348l-2.607-3.387l0.757-3.215l4.286-0.52l2.355,1.736l0.673,3.387l6.053,2.867
			l8.574,0.869l2.354-4.865l1.849-5.82l-0.168-5.298l-2.493-3.294l-4.909-6.655l-0.786-0.88l-3.748-1.071l-3.697-2.867l-2.861,1.217
			l-1.596-0.26l-4.96,0.433l-4.202,1.478l-4.036,4.689l-2.522,6.343l0.252,3.56l-1.176,1.043l0.587,5.387l1.851,6.775l5.296,5.387
			l8.743,1.043l-1.262,1.305l4.035,1.299l-0.924,1.219l3.866,1.389l4.37-0.348l1.851,1.305l5.63-0.783l5.972-3.734l3.108-4.779
			l0.505-4.43l-1.176-2.52l2.773,0.783l1.85,2.777l0.505,6.17l-6.558,7.645l-4.791,1.129l-3.953,2.865l-4.791,1.043l-0.925-1.736
			l-4.623-1.824l-3.613,0.348l1.26,1.824l-4.371-0.609l-3.194-3.039l-1.091,1.301l-6.225-7.209l-3.782-4.256l-2.69-6.342
			l-1.261-8.859l-2.186,2.17l-0.167-1.041l2.942-5.213l1.01-3.734l2.521-5.299l-6.052-0.174l8.742-5.473l10.594-2.52l-5.716-4.43
			l8.237,0.261l0.255-3.91l-1.684-2.606H273.489 M273.905,20.364h-0.416h-1.933h-1.837l0.997,1.542l1.504,2.329l-0.17,2.614
			l-7.271-0.23l-3.079-0.098l2.436,1.888l4.064,3.15l-8.562,2.036l-0.16,0.038l-0.14,0.087l-8.742,5.473l-2.799,1.752l3.301,0.095
			l4.519,0.13l-1.862,3.914l-0.039,0.082l-0.023,0.087l-0.977,3.613l-2.88,5.104l-0.172,0.305l0.056,0.346l0.167,1.041l0.31,1.923
			l1.382-1.372l0.771-0.767l0.98,6.887l0.019,0.13l0.051,0.12l2.69,6.342l0.064,0.151l0.109,0.122l3.782,4.256l6.215,7.198
			l0.768,0.89l0.756-0.9l0.406-0.485l2.423,2.306l0.233,0.222l0.318,0.044l4.371,0.609l2.254,0.314l-1.293-1.873l-0.293-0.424
			l1.68-0.161l4.057,1.601l0.752,1.411l0.356,0.668l0.739-0.16l4.791-1.043l0.204-0.045l0.17-0.123l3.791-2.747l4.596-1.083
			l0.317-0.075l0.212-0.247l6.558-7.645l0.271-0.317l-0.033-0.416l-0.505-6.17l-0.021-0.257l-0.144-0.216l-1.85-2.777l-0.205-0.308
			l-0.355-0.1l-2.773-0.783l-1.645-0.465l0.013-0.126l1.514-15.461l0.037-0.373l-0.218-0.305l-4.708-6.603l-0.427-0.598
			l-0.698,0.228l-1.094,0.357l-9.408-7.249l-4.634-5.728l-0.032-0.04l-0.035-0.036l-3.278-3.302L273.905,20.364L273.905,20.364z
			 M274.453,36.558l0.267-0.113l2.321-0.987l3.232,2.507l0.153,0.119l0.186,0.053l3.47,0.992l0.562,0.63l4.882,6.618l2.309,3.05
			l0.152,4.809l-1.775,5.589l-2.018,4.171l-7.706-0.781l-5.442-2.578l-0.575-2.894l-0.075-0.38l-0.312-0.229l-2.355-1.736
			l-0.32-0.235l-0.394,0.047l-4.286,0.52l-0.693,0.084l-0.16,0.68l-0.757,3.215l-0.108,0.463l0.29,0.377l2.607,3.387l0.257,0.333
			l0.418,0.05l2.717,0.321l7.626,4.829l0.142,0.09l0.162,0.038l8.404,1.998l0.371,0.089l0.336-0.182l5.299-2.865l0.33-0.179
			l0.131-0.351l2.894-7.733l0.643,1.376l1.057,2.264l-0.446,3.915l-2.859,4.396l-5.604,3.504l-5.026,0.699l-1.528-1.077
			l-0.295-0.208l-0.36,0.028l-4.155,0.331l-2.383-0.855l0.102-0.134l0.852-1.124l-1.342-0.433l-2.506-0.807l0.145-0.149l1.401-1.449
			l-2.002-0.239l-8.395-1.001l-4.867-4.95l-1.762-6.448l-0.522-4.794l0.79-0.7l0.369-0.327l-0.035-0.491l-0.236-3.332l2.376-5.975
			l3.753-4.36l3.831-1.347l4.71-0.411l1.472,0.24L274.453,36.558L274.453,36.558z"/>
	</g>
	<g>
		<path d="M282.129,85.35c-1.237-0.539-2.563-1.08-3.395-1.377l1.865,2.631l-5.187-0.296c-0.67-0.038-4.104-0.258-5.863-0.827
			c-1.06-0.342-2.139-1.198-3.052-2.103l-1.289,1.496l-9.319-10.511c-0.718-0.746-3.867-4.036-4.707-5.178
			c-1.115-1.517-3.156-6.638-3.608-8.174c-0.266-0.907-0.641-3.393-0.964-5.771l-1.455,1.406l-1.537-3.004
			c-0.168-0.329-0.697-1.508-0.427-2.847c0.14-0.689,0.525-1.32,1.839-3.4c0.564-0.894,1.492-2.363,1.73-2.873
			c0.224-0.974,0.741-2.939,1.243-4.455c0.263-0.794,0.947-2.229,1.623-3.569l-8.463-1.614l4.886-3.395
			c0.662-0.46,6.56-4.53,9.666-5.734c1.6-0.62,4.621-1.372,7.256-1.972l-7.304-6.513l14.663,0.451c0-0.032-0.002-0.061-0.005-0.086
			c-0.105-0.495-0.938-2.413-1.616-3.813l-1.823-3.758l4.174,0.169c0.201,0.008,1.288,0.08,2.886,0.682
			c1.691,0.637,3.908,2.976,4.783,3.952l0.114,0.138c2.59,3.343,6.854,8.458,8.223,9.362c1.155,0.761,2.829,2.069,4.448,3.335
			c1.241,0.97,2.918,2.281,3.492,2.63c0.075,0.015,0.218,0.036,0.444,0.036c0.262,0,0.469-0.027,0.517-0.034l1.425-0.213
			l0.916,1.124c3.529,4.425,5.49,7.297,5.828,8.536c0.543,1.999-0.801,13.204-1.378,17.018c0,0,0.161-0.009,0.318-0.009
			c0.829,0,2.944,0.136,4.67,1.395c1.972,1.441,2.811,3.464,3.135,4.541c0.081,0.268,0.326,1.081,0.709,7.771l0.056,0.975
			l-0.62,0.755c-7.058,8.591-8.131,9.246-8.483,9.462c-1.135,0.694-3.799,1.223-6.054,1.565c-1.555,1.158-3.8,2.793-4.608,3.197
			c-0.78,0.391-2.953,0.878-6.456,1.448l-1.746,0.284L282.129,85.35z M285.483,74.055c0.43,0.195,1.787,0.718,2.836,0.772
			c0.152,0.009,0.304,0.013,0.459,0.013c1.46-0.001,3.061-0.301,3.422-0.429c0.785-0.348,5.34-3.09,6.078-3.71
			c0.707-0.595,2.809-3.377,3.12-4.133c0.272-0.814,0.624-3.04,0.486-3.972c-0.038-0.262-0.199-0.626-0.391-0.973
			c-0.903,2.714-2.182,5.912-3.234,6.947c-1.158,1.138-6.263,4.447-8.251,4.911c-0.275,0.063-0.56,0.095-0.874,0.095
			c-2.667,0-9.219-2.727-10.058-3.115c-0.438-0.202-1.15-0.621-2.001-1.153l-2.089,2.104l4.352,1.367l-1.332,1.709
			c0.291,0.076,0.57,0.127,0.82,0.143c0.086,0.005,0.177,0.007,0.271,0.007c1.506,0,3.923-0.529,4.727-0.733l0.855-0.218
			L285.483,74.055z M254.695,50.419c0.17,1.818,0.404,4.039,0.546,4.71c1.162,5.463,1.806,6.926,1.975,7.244
			c0.661,1.237,4.196,4.682,5.189,5.188c0.846,0.28,5.656,0.743,9.58,0.99l4.326,0.272c-2.177-1.398-4.898-3.271-6.307-4.249
			c-0.093,0.002-0.189,0.004-0.289,0.004c-1.447,0-2.667-0.24-3.625-0.713c-2.112-1.04-3.918-3.845-4.409-5.47
			c-0.598-1.99,0.245-4.694,1.368-6.061c0.986-1.199,2.896-1.975,4.867-1.975c0.743,0,1.468,0.108,2.154,0.322
			c2.531,0.787,4.942,3.078,5.376,5.106c0.107,0.497,0.294,1.244,0.449,1.851c2.088,1.172,4.373,2.386,4.997,2.602
			c0.999,0.347,6.641,1.339,8.432,1.39c0.82-0.528,2.452-2.488,2.771-3.176c0.402-0.915,1.652-6.315,1.711-7.401
			c0.095-1.786,0.102-4.191-0.162-5.579c-0.247-0.872-2.409-3.773-3.224-4.865c-1.116-1.499-1.382-1.854-1.518-2.53
			c-0.039-0.193-0.101-0.505-0.027-1.165c-2.153-1.291-4.318-2.536-4.85-2.746c-0.769-0.294-2.126-0.511-2.54-0.563l-0.661-0.083
			l-3.772-2.847c-1.935,0.855-2.469,0.951-2.667,0.986c-0.21,0.038-0.444,0.059-0.696,0.059c-0.721,0-1.508-0.18-2.009-0.319
			c-1.223,0.023-3.712,0.129-5.026,0.435c-1.836,0.428-3.287,0.766-4.238,1.384c-0.981,0.638-2.871,2.476-3.998,4.563
			c-1.153,2.135-2.493,5.799-2.761,6.691c-0.01,0.546,0.153,2.138,0.319,3.326l0.188,1.35L254.695,50.419z"/>
		<path fill="#FFFFFF" d="M270.959,12.733c0,0,0.805,0.033,2.106,0.523c1.301,0.49,3.802,3.281,3.802,3.281s6.489,8.379,8.823,9.918
			c2.335,1.539,7.418,5.85,8.385,6.207c0.439,0.162,0.95,0.207,1.376,0.207c0.513,0,0.903-0.064,0.903-0.064s4.997,6.266,5.37,7.634
			c0.372,1.369-1.063,14.361-1.595,16.929c-0.533,2.566-2.687,8.499-3.624,9.422c-0.939,0.923-5.695,3.938-7.064,4.258
			c-0.085,0.02-0.188,0.029-0.307,0.029c-1.814,0-7.396-2.138-9.008-2.884c-1.72-0.796-9.405-6.166-9.405-6.166
			s-0.421,0.051-1.006,0.051c-0.747,0-1.764-0.082-2.52-0.455c-1.351-0.665-2.789-2.85-3.122-3.951
			c-0.331-1.103,0.267-2.97,0.907-3.749c0.47-0.572,1.644-1.063,2.936-1.063c0.464,0,0.943,0.063,1.411,0.209
			c1.771,0.551,3.453,2.207,3.674,3.241c0.225,1.033,0.741,2.982,0.741,2.982s4.949,2.831,6.331,3.311
			c1.289,0.446,7.462,1.529,9.383,1.529c0.138,0,0.254-0.006,0.345-0.018c1.355-0.177,4.028-3.436,4.569-4.625
			c0.538-1.191,1.857-6.923,1.932-8.302c0.073-1.38,0.155-4.302-0.202-6.181s-4.666-7.021-4.747-7.422
			c-0.08-0.402,0.318-1.898,0.318-1.898s-5.524-3.381-6.75-3.851c-1.224-0.469-3.122-0.709-3.122-0.709l-4.43-3.343
			c0,0-2.781,1.304-3.424,1.418c-0.077,0.014-0.164,0.02-0.257,0.02c-0.674,0-1.66-0.324-1.66-0.324s-3.879,0.025-5.941,0.505
			c-2.063,0.48-3.717,0.866-5.035,1.724c-1.317,0.857-3.509,3.018-4.834,5.471c-1.325,2.453-2.846,6.677-3.021,7.397
			c-0.176,0.722,0.303,4.154,0.303,4.154l-1.41,1.215c0,0,0.43,4.977,0.705,6.282c0.277,1.304,1.333,6.249,2.215,7.903
			c0.884,1.654,4.931,5.636,6.346,6.28c1.417,0.647,10.473,1.217,10.473,1.217l-1.51,1.521l4.834,1.519l-1.105,1.419
			c0,0,2.512,1.496,4.632,1.622c0.135,0.008,0.274,0.012,0.42,0.012c2.147,0,5.342-0.811,5.342-0.811s1.971,0.904,3.749,0.997
			c0.19,0.011,0.388,0.016,0.589,0.016c1.678,0,3.623-0.336,4.292-0.585c0.75-0.278,5.818-3.302,6.815-4.139
			c0.996-0.838,3.502-4.121,3.87-5.217c0.368-1.097,0.814-3.732,0.603-5.168c-0.213-1.437-1.409-2.938-1.409-2.938
			s0.046-0.002,0.128-0.002c0.456,0,2.032,0.065,3.196,0.914c1.374,1.004,1.975,2.444,2.215,3.242s0.606,7.193,0.606,7.193
			s-6.79,8.265-7.855,8.916s-5.74,1.317-5.74,1.317s-3.9,2.924-4.736,3.342c-0.837,0.419-5.739,1.217-5.739,1.217l-1.108-2.026
			c0,0-4.467-2.005-5.538-2.127c-0.111-0.013-0.246-0.019-0.398-0.019c-1.315,0-3.932,0.423-3.932,0.423l1.509,2.128
			c0,0-3.693-0.211-5.237-0.71c-1.545-0.498-3.825-3.545-3.825-3.545l-1.311,1.52l-7.456-8.409c0,0-3.73-3.876-4.53-4.963
			c-0.799-1.087-2.747-5.777-3.224-7.398c-0.475-1.621-1.51-10.333-1.51-10.333l-2.618,2.531c0,0-0.32-0.626-0.202-1.214
			c0.12-0.588,3.329-5.191,3.526-6.081c0.197-0.888,0.722-2.888,1.208-4.355c0.485-1.468,3.021-6.181,3.021-6.181l-5.922-1.129
			c0,0,6.225-4.325,9.144-5.457c2.919-1.131,11.691-2.893,11.691-2.893l-5.847-5.213l9.872,0.304c0,0,0.676-1.97,0.445-3.119
			C272.552,16.018,270.959,12.733,270.959,12.733 M262.818,7.398l3.642,7.516c0.03,0.063,0.061,0.126,0.092,0.191l-3.935-0.121
			l-13.745-0.423l8.897,7.933c-1.155,0.316-2.192,0.635-2.956,0.931c-3.308,1.282-9.069,5.233-10.19,6.013l-9.771,6.789
			l11.137,2.124c-0.148,0.351-0.271,0.667-0.359,0.934c-0.482,1.455-0.964,3.252-1.23,4.358c-0.313,0.564-1.031,1.701-1.483,2.418
			c-1.41,2.232-1.937,3.067-2.174,4.232c-0.421,2.084,0.314,3.833,0.65,4.488l3.074,6.008l0.409-0.396
			c0.105,0.55,0.206,1.002,0.298,1.318c0.501,1.7,2.633,7.104,3.995,8.954c0.882,1.199,3.654,4.115,4.884,5.394l7.388,8.334
			l3.793,4.278l1.558-1.806c0.639,0.427,1.307,0.773,1.992,0.994c1.996,0.646,5.47,0.885,6.486,0.943l6.088,0.348l0.977,1.785
			l3.491-0.568c5.655-0.921,6.644-1.415,7.175-1.682c0.278-0.139,1.083-0.541,4.483-3.057c4.636-0.752,5.873-1.508,6.363-1.808
			c0.667-0.408,1.785-1.091,9.11-10.008l1.24-1.509l-0.111-1.951c-0.4-6.985-0.657-7.839-0.811-8.349
			c-0.415-1.378-1.493-3.968-4.053-5.838c-1.201-0.876-2.497-1.352-3.646-1.605c0.656-4.951,1.583-13.187,0.973-15.434
			c-0.21-0.771-0.646-2.368-6.286-9.441l-1.898-2.381l-2.59,0.519c-0.73-0.535-1.886-1.438-2.722-2.091
			c-1.658-1.296-3.372-2.636-4.611-3.453c-1.095-0.804-4.837-5.209-7.622-8.805l-0.109-0.141l-0.12-0.134
			c-2.201-2.456-4.14-4.012-5.762-4.623c-1.857-0.699-3.183-0.82-3.667-0.84L262.818,7.398L262.818,7.398z M273.689,34.222
			c0.391,0,0.773-0.033,1.138-0.098c0.284-0.051,0.726-0.13,1.87-0.583l2.091,1.577l1.063,0.802l1.321,0.167
			c0.597,0.078,1.512,0.258,1.917,0.402c0.481,0.222,1.823,0.984,3.324,1.871c0.012,0.069,0.023,0.136,0.036,0.202
			c0.251,1.239,0.753,1.913,1.968,3.542c0.655,0.879,2.338,3.138,2.814,4.1c0.145,1.024,0.177,2.859,0.078,4.72
			c-0.09,0.983-1.08,5.288-1.489,6.476c-0.261,0.42-0.854,1.144-1.351,1.657c-1.979-0.224-5.737-0.878-6.758-1.179
			c-0.537-0.218-2.079-1.029-3.653-1.896c-0.066-0.275-0.127-0.531-0.171-0.733c-0.704-3.3-4.172-6.05-7.074-6.953
			c-0.927-0.288-1.901-0.435-2.896-0.435c-2.729,0-5.335,1.107-6.799,2.889c-1.542,1.875-2.708,5.443-1.833,8.36
			c0.518,1.712,2.12,4.446,4.326,6.136c-0.083-0.014-0.16-0.027-0.231-0.041c-1.101-0.832-3.408-3.159-3.97-4.033
			c-0.082-0.185-0.668-1.597-1.725-6.565c-0.082-0.399-0.23-1.683-0.377-3.139l1.519-1.308l-0.375-2.699
			c-0.129-0.928-0.245-2.025-0.282-2.625c0.407-1.199,1.522-4.148,2.447-5.86c0.931-1.721,2.544-3.254,3.162-3.656
			c0.582-0.379,1.972-0.703,3.443-1.045c0.878-0.205,2.787-0.326,4.163-0.363C272.028,34.068,272.866,34.222,273.689,34.222
			L273.689,34.222z"/>
	</g>
	<g>
		<g>
			<path fill="#FFFFFF" d="M340.418,27.459c2.275,0,4.356,0.256,6.246,0.768c1.889,0.512,3.478,1.331,4.765,2.456
				c1.288,1.126,2.211,2.569,2.77,4.329c0.386,1.146,0.579,2.456,0.579,3.93c0,0.778-0.043,1.576-0.129,2.395
				c-0.602,4.013-1.954,7.041-4.057,9.087c-2.104,2.048-4.852,3.378-8.242,3.991l11.204,16.518h-11.654l-10.624-15.903h-3.349
				l-2.318,15.903h-9.529l6.374-43.473H340.418z M337.585,46.801c2.103,0,3.82-0.419,5.151-1.259c1.33-0.838,2.146-2.22,2.447-4.145
				c0.042-0.327,0.064-0.634,0.064-0.921c0-0.491-0.064-0.941-0.193-1.351c-0.258-0.654-0.666-1.167-1.224-1.535
				c-0.559-0.368-1.245-0.634-2.061-0.798c-0.815-0.163-1.718-0.246-2.704-0.246h-8.436l-1.48,10.254H337.585z"/>
		</g>
		<g>
			<path fill="#FFFFFF" d="M390.063,70.932h-9.916l-2.576-9.947h-13.586l-5.216,9.947H348.66l22.344-43.473h9.079L390.063,70.932z
				 M367.591,52.695h8.757l-1.48-9.456l-0.387-6.202h-0.708l-2.189,6.263L367.591,52.695z"/>
		</g>
		<g>
			<path fill="#FFFFFF" d="M422.45,27.459h9.466l-6.375,43.473h-10.109l-10.56-22.841l-1.932-5.896h-0.258l-0.258,7.553
				l-3.091,21.184h-9.529l6.374-43.473h9.337l10.946,23.701l2.254,7.736h0.193l0.257-9.21L422.45,27.459z"/>
		</g>
		<g>
			<path fill="#FFFFFF" d="M459.99,27.459h11.525l-22.729,21.307l16.355,22.166h-11.72L441.51,54.783l-1.996,1.657l-2.125,14.491
				h-9.465l6.374-43.473h9.466l-2.64,18.114L459.99,27.459z"/>
		</g>
	</g>
</g>
<path fill="#FFFFFF" d="M311.242,57.254c1.576-4.729,4.102-7.916-0.395-19.703c-4.434-11.625-12.159-17.251-12.562-16.773
	c-0.481,0.572,0.702,4.433,0.702,4.433S309.853,61.42,311.242,57.254z"/>
<path d="M298.179,20.438l0.966,2.608c0,0,0.628,2.069,0.844,4.044c0.124,1.141,0.154-0.729-3.051-3.47
	c-3.604-3.083-6.229-3.896-6.229-3.896L298.179,20.438z"/>
</svg>
